<mxfile host="app.diagrams.net" modified="2021-07-09T11:08:46.306Z" agent="5.0 (Windows NT 10.0; Win64; x64) AppleWebKit/537.36 (KHTML, like Gecko) Chrome/91.0.4472.124 Safari/537.36" etag="VZN3sIXuDRuZG-vI6XmQ" version="14.8.5" type="github">
  <diagram id="T6uqeaQIaVlRJ9U078p_" name="第 1 页">
    <mxGraphModel dx="2171" dy="1162" grid="1" gridSize="10" guides="1" tooltips="1" connect="1" arrows="1" fold="1" page="1" pageScale="1" pageWidth="827" pageHeight="1169" math="0" shadow="0">
      <root>
        <mxCell id="0" />
        <mxCell id="1" parent="0" />
        <mxCell id="wRzNaVwQHWKmBmiZNEbp-59" value="" style="shape=table;startSize=0;container=1;collapsible=0;childLayout=tableLayout;" vertex="1" parent="1">
          <mxGeometry x="400" y="420" width="60" height="60" as="geometry" />
        </mxCell>
        <mxCell id="wRzNaVwQHWKmBmiZNEbp-60" value="" style="shape=partialRectangle;collapsible=0;dropTarget=0;pointerEvents=0;fillColor=none;top=0;left=0;bottom=0;right=0;points=[[0,0.5],[1,0.5]];portConstraint=eastwest;" vertex="1" parent="wRzNaVwQHWKmBmiZNEbp-59">
          <mxGeometry width="60" height="30" as="geometry" />
        </mxCell>
        <mxCell id="wRzNaVwQHWKmBmiZNEbp-61" value="" style="shape=partialRectangle;html=1;whiteSpace=wrap;connectable=0;overflow=hidden;fillColor=#fff2cc;top=0;left=0;bottom=0;right=0;strokeColor=#d6b656;" vertex="1" parent="wRzNaVwQHWKmBmiZNEbp-60">
          <mxGeometry width="30" height="30" as="geometry" />
        </mxCell>
        <mxCell id="wRzNaVwQHWKmBmiZNEbp-62" value="" style="shape=partialRectangle;html=1;whiteSpace=wrap;connectable=0;overflow=hidden;fillColor=#dae8fc;top=0;left=0;bottom=0;right=0;strokeColor=#6c8ebf;" vertex="1" parent="wRzNaVwQHWKmBmiZNEbp-60">
          <mxGeometry x="30" width="30" height="30" as="geometry" />
        </mxCell>
        <mxCell id="wRzNaVwQHWKmBmiZNEbp-63" value="" style="shape=partialRectangle;collapsible=0;dropTarget=0;pointerEvents=0;fillColor=none;top=0;left=0;bottom=0;right=0;points=[[0,0.5],[1,0.5]];portConstraint=eastwest;" vertex="1" parent="wRzNaVwQHWKmBmiZNEbp-59">
          <mxGeometry y="30" width="60" height="30" as="geometry" />
        </mxCell>
        <mxCell id="wRzNaVwQHWKmBmiZNEbp-64" value="" style="shape=partialRectangle;html=1;whiteSpace=wrap;connectable=0;overflow=hidden;fillColor=none;top=0;left=0;bottom=0;right=0;" vertex="1" parent="wRzNaVwQHWKmBmiZNEbp-63">
          <mxGeometry width="30" height="30" as="geometry" />
        </mxCell>
        <mxCell id="wRzNaVwQHWKmBmiZNEbp-65" value="" style="shape=partialRectangle;html=1;whiteSpace=wrap;connectable=0;overflow=hidden;fillColor=none;top=0;left=0;bottom=0;right=0;" vertex="1" parent="wRzNaVwQHWKmBmiZNEbp-63">
          <mxGeometry x="30" width="30" height="30" as="geometry" />
        </mxCell>
        <mxCell id="wRzNaVwQHWKmBmiZNEbp-87" value="" style="shape=table;startSize=0;container=1;collapsible=0;childLayout=tableLayout;" vertex="1" parent="1">
          <mxGeometry x="130" y="370" width="180" height="180" as="geometry" />
        </mxCell>
        <mxCell id="wRzNaVwQHWKmBmiZNEbp-88" value="" style="shape=partialRectangle;collapsible=0;dropTarget=0;pointerEvents=0;fillColor=none;top=0;left=0;bottom=0;right=0;points=[[0,0.5],[1,0.5]];portConstraint=eastwest;" vertex="1" parent="wRzNaVwQHWKmBmiZNEbp-87">
          <mxGeometry width="180" height="30" as="geometry" />
        </mxCell>
        <mxCell id="wRzNaVwQHWKmBmiZNEbp-89" value="" style="shape=partialRectangle;html=1;whiteSpace=wrap;connectable=0;overflow=hidden;fillColor=none;top=0;left=0;bottom=0;right=0;" vertex="1" parent="wRzNaVwQHWKmBmiZNEbp-88">
          <mxGeometry width="30" height="30" as="geometry" />
        </mxCell>
        <mxCell id="wRzNaVwQHWKmBmiZNEbp-90" value="" style="shape=partialRectangle;html=1;whiteSpace=wrap;connectable=0;overflow=hidden;fillColor=#fff2cc;top=0;left=0;bottom=0;right=0;strokeColor=#d6b656;" vertex="1" parent="wRzNaVwQHWKmBmiZNEbp-88">
          <mxGeometry x="30" width="30" height="30" as="geometry" />
        </mxCell>
        <mxCell id="wRzNaVwQHWKmBmiZNEbp-91" value="" style="shape=partialRectangle;html=1;whiteSpace=wrap;connectable=0;overflow=hidden;fillColor=#fff2cc;top=0;left=0;bottom=0;right=0;strokeColor=#d6b656;" vertex="1" parent="wRzNaVwQHWKmBmiZNEbp-88">
          <mxGeometry x="60" width="30" height="30" as="geometry" />
        </mxCell>
        <mxCell id="wRzNaVwQHWKmBmiZNEbp-92" value="" style="shape=partialRectangle;html=1;whiteSpace=wrap;connectable=0;overflow=hidden;fillColor=none;top=0;left=0;bottom=0;right=0;" vertex="1" parent="wRzNaVwQHWKmBmiZNEbp-88">
          <mxGeometry x="90" width="30" height="30" as="geometry" />
        </mxCell>
        <mxCell id="wRzNaVwQHWKmBmiZNEbp-93" value="" style="shape=partialRectangle;html=1;whiteSpace=wrap;connectable=0;overflow=hidden;fillColor=#dae8fc;top=0;left=0;bottom=0;right=0;strokeColor=#6c8ebf;" vertex="1" parent="wRzNaVwQHWKmBmiZNEbp-88">
          <mxGeometry x="120" width="30" height="30" as="geometry" />
        </mxCell>
        <mxCell id="wRzNaVwQHWKmBmiZNEbp-94" value="" style="shape=partialRectangle;html=1;whiteSpace=wrap;connectable=0;overflow=hidden;fillColor=#dae8fc;top=0;left=0;bottom=0;right=0;strokeColor=#6c8ebf;" vertex="1" parent="wRzNaVwQHWKmBmiZNEbp-88">
          <mxGeometry x="150" width="30" height="30" as="geometry" />
        </mxCell>
        <mxCell id="wRzNaVwQHWKmBmiZNEbp-95" value="" style="shape=partialRectangle;collapsible=0;dropTarget=0;pointerEvents=0;fillColor=none;top=0;left=0;bottom=0;right=0;points=[[0,0.5],[1,0.5]];portConstraint=eastwest;" vertex="1" parent="wRzNaVwQHWKmBmiZNEbp-87">
          <mxGeometry y="30" width="180" height="30" as="geometry" />
        </mxCell>
        <mxCell id="wRzNaVwQHWKmBmiZNEbp-96" value="" style="shape=partialRectangle;html=1;whiteSpace=wrap;connectable=0;overflow=hidden;fillColor=none;top=0;left=0;bottom=0;right=0;" vertex="1" parent="wRzNaVwQHWKmBmiZNEbp-95">
          <mxGeometry width="30" height="30" as="geometry" />
        </mxCell>
        <mxCell id="wRzNaVwQHWKmBmiZNEbp-97" value="" style="shape=partialRectangle;html=1;whiteSpace=wrap;connectable=0;overflow=hidden;fillColor=#fff2cc;top=0;left=0;bottom=0;right=0;strokeColor=#d6b656;" vertex="1" parent="wRzNaVwQHWKmBmiZNEbp-95">
          <mxGeometry x="30" width="30" height="30" as="geometry" />
        </mxCell>
        <mxCell id="wRzNaVwQHWKmBmiZNEbp-98" value="" style="shape=partialRectangle;html=1;whiteSpace=wrap;connectable=0;overflow=hidden;fillColor=#fff2cc;top=0;left=0;bottom=0;right=0;strokeColor=#d6b656;" vertex="1" parent="wRzNaVwQHWKmBmiZNEbp-95">
          <mxGeometry x="60" width="30" height="30" as="geometry" />
        </mxCell>
        <mxCell id="wRzNaVwQHWKmBmiZNEbp-99" value="" style="shape=partialRectangle;html=1;whiteSpace=wrap;connectable=0;overflow=hidden;fillColor=none;top=0;left=0;bottom=0;right=0;" vertex="1" parent="wRzNaVwQHWKmBmiZNEbp-95">
          <mxGeometry x="90" width="30" height="30" as="geometry" />
        </mxCell>
        <mxCell id="wRzNaVwQHWKmBmiZNEbp-100" value="" style="shape=partialRectangle;html=1;whiteSpace=wrap;connectable=0;overflow=hidden;fillColor=#dae8fc;top=0;left=0;bottom=0;right=0;strokeColor=#6c8ebf;" vertex="1" parent="wRzNaVwQHWKmBmiZNEbp-95">
          <mxGeometry x="120" width="30" height="30" as="geometry" />
        </mxCell>
        <mxCell id="wRzNaVwQHWKmBmiZNEbp-101" value="" style="shape=partialRectangle;html=1;whiteSpace=wrap;connectable=0;overflow=hidden;fillColor=#dae8fc;top=0;left=0;bottom=0;right=0;strokeColor=#6c8ebf;" vertex="1" parent="wRzNaVwQHWKmBmiZNEbp-95">
          <mxGeometry x="150" width="30" height="30" as="geometry" />
        </mxCell>
        <mxCell id="wRzNaVwQHWKmBmiZNEbp-102" value="" style="shape=partialRectangle;collapsible=0;dropTarget=0;pointerEvents=0;fillColor=none;top=0;left=0;bottom=0;right=0;points=[[0,0.5],[1,0.5]];portConstraint=eastwest;" vertex="1" parent="wRzNaVwQHWKmBmiZNEbp-87">
          <mxGeometry y="60" width="180" height="30" as="geometry" />
        </mxCell>
        <mxCell id="wRzNaVwQHWKmBmiZNEbp-103" value="" style="shape=partialRectangle;html=1;whiteSpace=wrap;connectable=0;overflow=hidden;fillColor=none;top=0;left=0;bottom=0;right=0;" vertex="1" parent="wRzNaVwQHWKmBmiZNEbp-102">
          <mxGeometry width="30" height="30" as="geometry" />
        </mxCell>
        <mxCell id="wRzNaVwQHWKmBmiZNEbp-104" value="" style="shape=partialRectangle;html=1;whiteSpace=wrap;connectable=0;overflow=hidden;fillColor=none;top=0;left=0;bottom=0;right=0;" vertex="1" parent="wRzNaVwQHWKmBmiZNEbp-102">
          <mxGeometry x="30" width="30" height="30" as="geometry" />
        </mxCell>
        <mxCell id="wRzNaVwQHWKmBmiZNEbp-105" value="" style="shape=partialRectangle;html=1;whiteSpace=wrap;connectable=0;overflow=hidden;fillColor=none;top=0;left=0;bottom=0;right=0;" vertex="1" parent="wRzNaVwQHWKmBmiZNEbp-102">
          <mxGeometry x="60" width="30" height="30" as="geometry" />
        </mxCell>
        <mxCell id="wRzNaVwQHWKmBmiZNEbp-106" value="" style="shape=partialRectangle;html=1;whiteSpace=wrap;connectable=0;overflow=hidden;fillColor=none;top=0;left=0;bottom=0;right=0;" vertex="1" parent="wRzNaVwQHWKmBmiZNEbp-102">
          <mxGeometry x="90" width="30" height="30" as="geometry" />
        </mxCell>
        <mxCell id="wRzNaVwQHWKmBmiZNEbp-107" value="" style="shape=partialRectangle;html=1;whiteSpace=wrap;connectable=0;overflow=hidden;fillColor=none;top=0;left=0;bottom=0;right=0;" vertex="1" parent="wRzNaVwQHWKmBmiZNEbp-102">
          <mxGeometry x="120" width="30" height="30" as="geometry" />
        </mxCell>
        <mxCell id="wRzNaVwQHWKmBmiZNEbp-108" value="" style="shape=partialRectangle;html=1;whiteSpace=wrap;connectable=0;overflow=hidden;fillColor=none;top=0;left=0;bottom=0;right=0;" vertex="1" parent="wRzNaVwQHWKmBmiZNEbp-102">
          <mxGeometry x="150" width="30" height="30" as="geometry" />
        </mxCell>
        <mxCell id="wRzNaVwQHWKmBmiZNEbp-109" value="" style="shape=partialRectangle;collapsible=0;dropTarget=0;pointerEvents=0;fillColor=none;top=0;left=0;bottom=0;right=0;points=[[0,0.5],[1,0.5]];portConstraint=eastwest;" vertex="1" parent="wRzNaVwQHWKmBmiZNEbp-87">
          <mxGeometry y="90" width="180" height="30" as="geometry" />
        </mxCell>
        <mxCell id="wRzNaVwQHWKmBmiZNEbp-110" value="" style="shape=partialRectangle;html=1;whiteSpace=wrap;connectable=0;overflow=hidden;fillColor=none;top=0;left=0;bottom=0;right=0;" vertex="1" parent="wRzNaVwQHWKmBmiZNEbp-109">
          <mxGeometry width="30" height="30" as="geometry" />
        </mxCell>
        <mxCell id="wRzNaVwQHWKmBmiZNEbp-111" value="" style="shape=partialRectangle;html=1;whiteSpace=wrap;connectable=0;overflow=hidden;fillColor=none;top=0;left=0;bottom=0;right=0;" vertex="1" parent="wRzNaVwQHWKmBmiZNEbp-109">
          <mxGeometry x="30" width="30" height="30" as="geometry" />
        </mxCell>
        <mxCell id="wRzNaVwQHWKmBmiZNEbp-112" value="" style="shape=partialRectangle;html=1;whiteSpace=wrap;connectable=0;overflow=hidden;fillColor=none;top=0;left=0;bottom=0;right=0;" vertex="1" parent="wRzNaVwQHWKmBmiZNEbp-109">
          <mxGeometry x="60" width="30" height="30" as="geometry" />
        </mxCell>
        <mxCell id="wRzNaVwQHWKmBmiZNEbp-113" value="" style="shape=partialRectangle;html=1;whiteSpace=wrap;connectable=0;overflow=hidden;fillColor=none;top=0;left=0;bottom=0;right=0;" vertex="1" parent="wRzNaVwQHWKmBmiZNEbp-109">
          <mxGeometry x="90" width="30" height="30" as="geometry" />
        </mxCell>
        <mxCell id="wRzNaVwQHWKmBmiZNEbp-114" value="" style="shape=partialRectangle;html=1;whiteSpace=wrap;connectable=0;overflow=hidden;fillColor=none;top=0;left=0;bottom=0;right=0;" vertex="1" parent="wRzNaVwQHWKmBmiZNEbp-109">
          <mxGeometry x="120" width="30" height="30" as="geometry" />
        </mxCell>
        <mxCell id="wRzNaVwQHWKmBmiZNEbp-115" value="" style="shape=partialRectangle;html=1;whiteSpace=wrap;connectable=0;overflow=hidden;fillColor=none;top=0;left=0;bottom=0;right=0;" vertex="1" parent="wRzNaVwQHWKmBmiZNEbp-109">
          <mxGeometry x="150" width="30" height="30" as="geometry" />
        </mxCell>
        <mxCell id="wRzNaVwQHWKmBmiZNEbp-116" value="" style="shape=partialRectangle;collapsible=0;dropTarget=0;pointerEvents=0;fillColor=none;top=0;left=0;bottom=0;right=0;points=[[0,0.5],[1,0.5]];portConstraint=eastwest;" vertex="1" parent="wRzNaVwQHWKmBmiZNEbp-87">
          <mxGeometry y="120" width="180" height="30" as="geometry" />
        </mxCell>
        <mxCell id="wRzNaVwQHWKmBmiZNEbp-117" value="" style="shape=partialRectangle;html=1;whiteSpace=wrap;connectable=0;overflow=hidden;fillColor=none;top=0;left=0;bottom=0;right=0;" vertex="1" parent="wRzNaVwQHWKmBmiZNEbp-116">
          <mxGeometry width="30" height="30" as="geometry" />
        </mxCell>
        <mxCell id="wRzNaVwQHWKmBmiZNEbp-118" value="" style="shape=partialRectangle;html=1;whiteSpace=wrap;connectable=0;overflow=hidden;fillColor=none;top=0;left=0;bottom=0;right=0;" vertex="1" parent="wRzNaVwQHWKmBmiZNEbp-116">
          <mxGeometry x="30" width="30" height="30" as="geometry" />
        </mxCell>
        <mxCell id="wRzNaVwQHWKmBmiZNEbp-119" value="" style="shape=partialRectangle;html=1;whiteSpace=wrap;connectable=0;overflow=hidden;fillColor=none;top=0;left=0;bottom=0;right=0;" vertex="1" parent="wRzNaVwQHWKmBmiZNEbp-116">
          <mxGeometry x="60" width="30" height="30" as="geometry" />
        </mxCell>
        <mxCell id="wRzNaVwQHWKmBmiZNEbp-120" value="" style="shape=partialRectangle;html=1;whiteSpace=wrap;connectable=0;overflow=hidden;fillColor=none;top=0;left=0;bottom=0;right=0;" vertex="1" parent="wRzNaVwQHWKmBmiZNEbp-116">
          <mxGeometry x="90" width="30" height="30" as="geometry" />
        </mxCell>
        <mxCell id="wRzNaVwQHWKmBmiZNEbp-121" value="" style="shape=partialRectangle;html=1;whiteSpace=wrap;connectable=0;overflow=hidden;fillColor=none;top=0;left=0;bottom=0;right=0;" vertex="1" parent="wRzNaVwQHWKmBmiZNEbp-116">
          <mxGeometry x="120" width="30" height="30" as="geometry" />
        </mxCell>
        <mxCell id="wRzNaVwQHWKmBmiZNEbp-122" value="" style="shape=partialRectangle;html=1;whiteSpace=wrap;connectable=0;overflow=hidden;fillColor=none;top=0;left=0;bottom=0;right=0;" vertex="1" parent="wRzNaVwQHWKmBmiZNEbp-116">
          <mxGeometry x="150" width="30" height="30" as="geometry" />
        </mxCell>
        <mxCell id="wRzNaVwQHWKmBmiZNEbp-123" value="" style="shape=partialRectangle;collapsible=0;dropTarget=0;pointerEvents=0;fillColor=none;top=0;left=0;bottom=0;right=0;points=[[0,0.5],[1,0.5]];portConstraint=eastwest;" vertex="1" parent="wRzNaVwQHWKmBmiZNEbp-87">
          <mxGeometry y="150" width="180" height="30" as="geometry" />
        </mxCell>
        <mxCell id="wRzNaVwQHWKmBmiZNEbp-124" value="" style="shape=partialRectangle;html=1;whiteSpace=wrap;connectable=0;overflow=hidden;fillColor=none;top=0;left=0;bottom=0;right=0;" vertex="1" parent="wRzNaVwQHWKmBmiZNEbp-123">
          <mxGeometry width="30" height="30" as="geometry" />
        </mxCell>
        <mxCell id="wRzNaVwQHWKmBmiZNEbp-125" value="" style="shape=partialRectangle;html=1;whiteSpace=wrap;connectable=0;overflow=hidden;fillColor=none;top=0;left=0;bottom=0;right=0;" vertex="1" parent="wRzNaVwQHWKmBmiZNEbp-123">
          <mxGeometry x="30" width="30" height="30" as="geometry" />
        </mxCell>
        <mxCell id="wRzNaVwQHWKmBmiZNEbp-126" value="" style="shape=partialRectangle;html=1;whiteSpace=wrap;connectable=0;overflow=hidden;fillColor=none;top=0;left=0;bottom=0;right=0;" vertex="1" parent="wRzNaVwQHWKmBmiZNEbp-123">
          <mxGeometry x="60" width="30" height="30" as="geometry" />
        </mxCell>
        <mxCell id="wRzNaVwQHWKmBmiZNEbp-127" value="" style="shape=partialRectangle;html=1;whiteSpace=wrap;connectable=0;overflow=hidden;fillColor=none;top=0;left=0;bottom=0;right=0;" vertex="1" parent="wRzNaVwQHWKmBmiZNEbp-123">
          <mxGeometry x="90" width="30" height="30" as="geometry" />
        </mxCell>
        <mxCell id="wRzNaVwQHWKmBmiZNEbp-128" value="" style="shape=partialRectangle;html=1;whiteSpace=wrap;connectable=0;overflow=hidden;fillColor=none;top=0;left=0;bottom=0;right=0;" vertex="1" parent="wRzNaVwQHWKmBmiZNEbp-123">
          <mxGeometry x="120" width="30" height="30" as="geometry" />
        </mxCell>
        <mxCell id="wRzNaVwQHWKmBmiZNEbp-129" value="" style="shape=partialRectangle;html=1;whiteSpace=wrap;connectable=0;overflow=hidden;fillColor=none;top=0;left=0;bottom=0;right=0;" vertex="1" parent="wRzNaVwQHWKmBmiZNEbp-123">
          <mxGeometry x="150" width="30" height="30" as="geometry" />
        </mxCell>
        <mxCell id="wRzNaVwQHWKmBmiZNEbp-130" value="" style="swimlane;startSize=0;strokeColor=#FF3333;strokeWidth=4;" vertex="1" parent="1">
          <mxGeometry x="160" y="370" width="60" height="60" as="geometry" />
        </mxCell>
        <mxCell id="wRzNaVwQHWKmBmiZNEbp-174" value="" style="swimlane;startSize=0;strokeColor=#FF3333;strokeWidth=4;" vertex="1" parent="1">
          <mxGeometry x="250" y="370" width="60" height="60" as="geometry" />
        </mxCell>
        <mxCell id="wRzNaVwQHWKmBmiZNEbp-175" value="" style="endArrow=classic;html=1;" edge="1" parent="1">
          <mxGeometry width="50" height="50" relative="1" as="geometry">
            <mxPoint x="175" y="390" as="sourcePoint" />
            <mxPoint x="420" y="430" as="targetPoint" />
          </mxGeometry>
        </mxCell>
        <mxCell id="wRzNaVwQHWKmBmiZNEbp-176" value="" style="endArrow=classic;html=1;exitX=1;exitY=0.25;exitDx=0;exitDy=0;entryX=0.764;entryY=0.004;entryDx=0;entryDy=0;entryPerimeter=0;startArrow=none;" edge="1" parent="1" source="wRzNaVwQHWKmBmiZNEbp-178" target="wRzNaVwQHWKmBmiZNEbp-60">
          <mxGeometry width="50" height="50" relative="1" as="geometry">
            <mxPoint x="390" y="620" as="sourcePoint" />
            <mxPoint x="440" y="570" as="targetPoint" />
          </mxGeometry>
        </mxCell>
        <mxCell id="wRzNaVwQHWKmBmiZNEbp-178" value="" style="swimlane;startSize=0;strokeColor=#FF3333;strokeWidth=4;" vertex="1" parent="1">
          <mxGeometry x="400" y="420" width="30" height="30" as="geometry" />
        </mxCell>
        <mxCell id="wRzNaVwQHWKmBmiZNEbp-179" value="" style="endArrow=none;html=1;exitX=1;exitY=0.25;exitDx=0;exitDy=0;" edge="1" parent="1" source="wRzNaVwQHWKmBmiZNEbp-174">
          <mxGeometry width="50" height="50" relative="1" as="geometry">
            <mxPoint x="310" y="385" as="sourcePoint" />
            <mxPoint x="445" y="430" as="targetPoint" />
          </mxGeometry>
        </mxCell>
        <mxCell id="wRzNaVwQHWKmBmiZNEbp-180" value="" style="swimlane;startSize=0;strokeColor=#FF3333;strokeWidth=4;" vertex="1" parent="1">
          <mxGeometry x="430" y="420" width="30" height="30" as="geometry" />
        </mxCell>
      </root>
    </mxGraphModel>
  </diagram>
</mxfile>
